<svg width="1514" height="413" viewBox="0 0 1514 413" fill="none" xmlns="http://www.w3.org/2000/svg">
<path d="M131.925 372.638C45.5457 372.638 0 329.186 0 248.041V0.943115H63.3451V106.169H123.549V164.279H63.3451V248.041C63.3451 295.681 82.7151 315.575 132.449 315.575V372.638H131.925Z" fill="white"/>
<path d="M242.909 124.492C258.091 110.357 279.555 101.458 309.396 101.458C387.923 101.458 421.951 166.897 421.951 212.442V368.973H358.606V213.49C358.606 176.32 331.383 159.568 301.019 159.568C270.656 159.568 243.433 176.32 243.433 213.49V368.449H180.088V0.943108H243.433V124.492H242.909Z" fill="white"/>
<path d="M609.892 100.934V159.044C568.011 159.044 542.359 179.461 542.359 221.866V368.973H479.537V221.342C479.537 141.768 529.794 100.934 609.892 100.934Z" fill="white"/>
<path d="M775.846 101.981C857.514 101.981 911.436 155.903 911.436 237.048C911.436 318.716 857.514 373.161 775.846 373.161C694.178 373.161 639.732 318.716 639.732 237.048C639.732 156.427 694.701 101.981 775.846 101.981ZM775.322 315.575C819.297 315.575 848.614 286.781 848.614 237.571C848.614 188.884 819.821 159.568 775.322 159.568C731.871 159.568 702.554 188.361 702.554 237.571C703.078 286.781 731.871 315.575 775.322 315.575Z" fill="white"/>
<path d="M1096.24 101.981C1177.9 101.981 1231.83 155.903 1231.83 237.048C1231.83 318.716 1177.9 373.161 1096.24 373.161C1014.57 373.161 960.123 318.716 960.123 237.048C960.123 156.427 1015.09 101.981 1096.24 101.981ZM1095.71 315.575C1139.69 315.575 1169 286.781 1169 237.571C1169 188.884 1140.21 159.568 1095.71 159.568C1052.26 159.568 1022.94 188.361 1022.94 237.571C1023.47 286.781 1052.26 315.575 1095.71 315.575Z" fill="white"/>
<path d="M1250.15 105.646H1317.68L1382.07 284.164L1445.94 105.646H1514L1414.53 368.973H1349.09L1250.15 105.646Z" fill="white"/>
<path d="M301.659 405.206C299.83 405.206 298.224 404.786 296.843 403.946C295.462 403.087 294.388 401.902 293.623 400.39C292.858 398.878 292.475 397.114 292.475 395.098C292.475 393.101 292.858 391.337 293.623 389.806C294.407 388.275 295.508 387.081 296.927 386.222C298.364 385.363 300.054 384.934 301.995 384.934C304.198 384.934 306.036 385.466 307.511 386.53C308.986 387.575 309.928 389.041 310.339 390.926H307.623C307.362 389.75 306.746 388.817 305.775 388.126C304.804 387.435 303.544 387.09 301.995 387.09C300.558 387.09 299.298 387.417 298.215 388.07C297.151 388.705 296.33 389.619 295.751 390.814C295.172 392.009 294.883 393.437 294.883 395.098C294.883 396.759 295.172 398.197 295.751 399.41C296.33 400.605 297.132 401.519 298.159 402.154C299.204 402.789 300.399 403.106 301.743 403.106C303.834 403.106 305.411 402.49 306.475 401.258C307.539 400.026 308.146 398.355 308.295 396.246H302.639V394.398H310.703V404.87H308.547L308.351 401.65C307.884 402.415 307.343 403.069 306.727 403.61C306.13 404.133 305.42 404.534 304.599 404.814C303.778 405.075 302.798 405.206 301.659 405.206ZM317.11 404.87V390.758H319.238L319.406 393.446C319.723 392.811 320.124 392.27 320.61 391.822C321.114 391.374 321.711 391.029 322.402 390.786C323.111 390.543 323.914 390.422 324.81 390.422V392.886H323.942C323.344 392.886 322.775 392.97 322.234 393.138C321.692 393.287 321.207 393.539 320.778 393.894C320.367 394.249 320.04 394.734 319.798 395.35C319.574 395.947 319.462 396.694 319.462 397.59V404.87H317.11ZM336.053 405.206C334.747 405.206 333.571 404.907 332.525 404.31C331.48 403.694 330.659 402.835 330.061 401.734C329.464 400.614 329.165 399.317 329.165 397.842C329.165 396.33 329.464 395.023 330.061 393.922C330.677 392.802 331.508 391.943 332.553 391.346C333.617 390.73 334.803 390.422 336.109 390.422C337.453 390.422 338.639 390.73 339.665 391.346C340.711 391.943 341.532 392.802 342.129 393.922C342.745 395.023 343.053 396.321 343.053 397.814C343.053 399.307 342.745 400.614 342.129 401.734C341.513 402.835 340.683 403.694 339.637 404.31C338.592 404.907 337.397 405.206 336.053 405.206ZM336.081 403.19C336.884 403.19 337.631 402.994 338.321 402.602C339.012 402.191 339.572 401.585 340.001 400.782C340.431 399.979 340.645 398.99 340.645 397.814C340.645 396.619 340.431 395.63 340.001 394.846C339.591 394.043 339.04 393.446 338.349 393.054C337.677 392.643 336.931 392.438 336.109 392.438C335.325 392.438 334.579 392.643 333.869 393.054C333.179 393.446 332.619 394.043 332.189 394.846C331.779 395.63 331.573 396.619 331.573 397.814C331.573 398.99 331.779 399.979 332.189 400.782C332.619 401.585 333.169 402.191 333.841 402.602C334.532 402.994 335.279 403.19 336.081 403.19ZM351.487 404.87L347.343 390.758H349.695L352.915 402.658H352.495L355.995 390.758H358.655L362.211 402.63L361.763 402.658L364.955 390.758H367.335L363.219 404.87H360.811L357.115 392.438H357.591L353.895 404.87H351.487ZM383.164 404.87V385.27H390.052C391.434 385.27 392.572 385.494 393.468 385.942C394.383 386.371 395.064 386.969 395.512 387.734C395.96 388.481 396.184 389.321 396.184 390.254C396.184 391.262 395.96 392.102 395.512 392.774C395.083 393.446 394.514 393.959 393.804 394.314C393.114 394.669 392.376 394.883 391.592 394.958L391.984 394.678C392.824 394.697 393.599 394.921 394.308 395.35C395.018 395.779 395.578 396.358 395.988 397.086C396.418 397.814 396.632 398.626 396.632 399.522C396.632 400.511 396.39 401.417 395.904 402.238C395.419 403.041 394.7 403.685 393.748 404.17C392.815 404.637 391.658 404.87 390.276 404.87H383.164ZM385.516 402.91H390.024C391.35 402.91 392.376 402.602 393.104 401.986C393.851 401.351 394.224 400.474 394.224 399.354C394.224 398.253 393.842 397.375 393.076 396.722C392.33 396.05 391.294 395.714 389.968 395.714H385.516V402.91ZM385.516 393.838H389.884C391.154 393.838 392.115 393.539 392.768 392.942C393.44 392.345 393.776 391.533 393.776 390.506C393.776 389.517 393.44 388.723 392.768 388.126C392.115 387.529 391.126 387.23 389.8 387.23H385.516V393.838ZM408.884 405.206C407.558 405.206 406.382 404.898 405.356 404.282C404.348 403.666 403.554 402.807 402.976 401.706C402.397 400.586 402.108 399.289 402.108 397.814C402.108 396.321 402.388 395.023 402.948 393.922C403.526 392.821 404.329 391.962 405.356 391.346C406.401 390.73 407.596 390.422 408.94 390.422C410.321 390.422 411.488 390.73 412.44 391.346C413.41 391.962 414.148 392.774 414.652 393.782C415.174 394.771 415.436 395.863 415.436 397.058C415.436 397.245 415.436 397.441 415.436 397.646C415.436 397.851 415.426 398.085 415.408 398.346H403.872V396.526H413.14C413.084 395.238 412.654 394.23 411.852 393.502C411.068 392.774 410.078 392.41 408.884 392.41C408.081 392.41 407.334 392.597 406.644 392.97C405.972 393.325 405.43 393.857 405.02 394.566C404.609 395.257 404.404 396.125 404.404 397.17V397.954C404.404 399.111 404.609 400.082 405.02 400.866C405.449 401.65 406 402.238 406.672 402.63C407.362 403.022 408.1 403.218 408.884 403.218C409.873 403.218 410.685 403.003 411.32 402.574C411.973 402.126 412.44 401.529 412.72 400.782H415.044C414.82 401.622 414.428 402.378 413.868 403.05C413.308 403.722 412.608 404.254 411.768 404.646C410.946 405.019 409.985 405.206 408.884 405.206ZM422.403 411.03L425.847 403.302H425.035L419.491 390.758H422.039L426.631 401.538L431.447 390.758H433.883L424.867 411.03H422.403ZM444.209 405.206C442.902 405.206 441.726 404.907 440.681 404.31C439.635 403.694 438.814 402.835 438.217 401.734C437.619 400.614 437.321 399.317 437.321 397.842C437.321 396.33 437.619 395.023 438.217 393.922C438.833 392.802 439.663 391.943 440.709 391.346C441.773 390.73 442.958 390.422 444.265 390.422C445.609 390.422 446.794 390.73 447.821 391.346C448.866 391.943 449.687 392.802 450.285 393.922C450.901 395.023 451.209 396.321 451.209 397.814C451.209 399.307 450.901 400.614 450.285 401.734C449.669 402.835 448.838 403.694 447.793 404.31C446.747 404.907 445.553 405.206 444.209 405.206ZM444.237 403.19C445.039 403.19 445.786 402.994 446.477 402.602C447.167 402.191 447.727 401.585 448.157 400.782C448.586 399.979 448.801 398.99 448.801 397.814C448.801 396.619 448.586 395.63 448.157 394.846C447.746 394.043 447.195 393.446 446.505 393.054C445.833 392.643 445.086 392.438 444.265 392.438C443.481 392.438 442.734 392.643 442.025 393.054C441.334 393.446 440.774 394.043 440.345 394.846C439.934 395.63 439.729 396.619 439.729 397.814C439.729 398.99 439.934 399.979 440.345 400.782C440.774 401.585 441.325 402.191 441.997 402.602C442.687 402.994 443.434 403.19 444.237 403.19ZM457.306 404.87V390.758H459.434L459.546 393.222C459.994 392.345 460.629 391.663 461.45 391.178C462.29 390.674 463.242 390.422 464.306 390.422C465.408 390.422 466.36 390.646 467.162 391.094C467.965 391.523 468.59 392.186 469.038 393.082C469.486 393.959 469.71 395.079 469.71 396.442V404.87H467.358V396.694C467.358 395.275 467.041 394.211 466.406 393.502C465.79 392.793 464.913 392.438 463.774 392.438C462.99 392.438 462.29 392.634 461.674 393.026C461.058 393.399 460.564 393.95 460.19 394.678C459.836 395.387 459.658 396.274 459.658 397.338V404.87H457.306ZM482.401 405.206C481.038 405.206 479.843 404.889 478.817 404.254C477.79 403.601 476.997 402.714 476.437 401.594C475.877 400.474 475.597 399.205 475.597 397.786C475.597 396.367 475.877 395.107 476.437 394.006C476.997 392.886 477.79 392.009 478.817 391.374C479.862 390.739 481.066 390.422 482.429 390.422C483.586 390.422 484.594 390.655 485.453 391.122C486.33 391.589 487.002 392.242 487.469 393.082V384.71H489.821V404.87H487.693L487.497 402.546C487.198 403.013 486.815 403.451 486.349 403.862C485.882 404.254 485.322 404.581 484.669 404.842C484.015 405.085 483.259 405.206 482.401 405.206ZM482.681 403.162C483.614 403.162 484.435 402.938 485.145 402.49C485.854 402.042 486.405 401.426 486.797 400.642C487.189 399.839 487.385 398.897 487.385 397.814C487.385 396.75 487.189 395.817 486.797 395.014C486.405 394.211 485.854 393.586 485.145 393.138C484.435 392.69 483.614 392.466 482.681 392.466C481.766 392.466 480.954 392.69 480.245 393.138C479.535 393.586 478.985 394.211 478.593 395.014C478.201 395.817 478.005 396.75 478.005 397.814C478.005 398.897 478.201 399.839 478.593 400.642C478.985 401.426 479.535 402.042 480.245 402.49C480.954 402.938 481.766 403.162 482.681 403.162ZM506.777 404.87V384.71H509.129V404.87H506.777ZM516.035 404.87V390.758H518.387V404.87H516.035ZM517.211 387.762C516.744 387.762 516.352 387.613 516.035 387.314C515.736 386.997 515.587 386.605 515.587 386.138C515.587 385.671 515.736 385.298 516.035 385.018C516.352 384.719 516.744 384.57 517.211 384.57C517.659 384.57 518.042 384.719 518.359 385.018C518.676 385.298 518.835 385.671 518.835 386.138C518.835 386.605 518.676 386.997 518.359 387.314C518.042 387.613 517.659 387.762 517.211 387.762ZM525.338 404.87V390.758H527.466L527.606 392.774C528.054 392.046 528.651 391.477 529.398 391.066C530.163 390.637 530.994 390.422 531.89 390.422C532.618 390.422 533.271 390.525 533.85 390.73C534.447 390.917 534.97 391.215 535.418 391.626C535.866 392.018 536.23 392.522 536.51 393.138C536.995 392.279 537.658 391.617 538.498 391.15C539.356 390.665 540.271 390.422 541.242 390.422C542.324 390.422 543.267 390.646 544.07 391.094C544.891 391.523 545.516 392.186 545.946 393.082C546.394 393.959 546.618 395.079 546.618 396.442V404.87H544.294V396.694C544.294 395.275 544.004 394.211 543.426 393.502C542.847 392.793 542.035 392.438 540.99 392.438C540.262 392.438 539.608 392.634 539.03 393.026C538.451 393.399 537.994 393.95 537.658 394.678C537.322 395.406 537.154 396.302 537.154 397.366V404.87H534.802V396.694C534.802 395.275 534.512 394.211 533.934 393.502C533.355 392.793 532.534 392.438 531.47 392.438C530.76 392.438 530.116 392.634 529.538 393.026C528.978 393.399 528.53 393.95 528.194 394.678C527.858 395.406 527.69 396.302 527.69 397.366V404.87H525.338ZM553.299 404.87V390.758H555.651V404.87H553.299ZM554.475 387.762C554.009 387.762 553.617 387.613 553.299 387.314C553.001 386.997 552.851 386.605 552.851 386.138C552.851 385.671 553.001 385.298 553.299 385.018C553.617 384.719 554.009 384.57 554.475 384.57C554.923 384.57 555.306 384.719 555.623 385.018C555.941 385.298 556.099 385.671 556.099 386.138C556.099 386.605 555.941 386.997 555.623 387.314C555.306 387.613 554.923 387.762 554.475 387.762ZM568.146 404.87C567.306 404.87 566.578 404.739 565.962 404.478C565.346 404.217 564.87 403.778 564.534 403.162C564.216 402.527 564.058 401.678 564.058 400.614V392.746H561.594V390.758H564.058L564.366 387.342H566.41V390.758H570.498V392.746H566.41V400.614C566.41 401.491 566.587 402.089 566.942 402.406C567.296 402.705 567.922 402.854 568.818 402.854H570.33V404.87H568.146ZM581.687 405.206C580.511 405.206 579.484 405.01 578.607 404.618C577.748 404.226 577.057 403.685 576.535 402.994C576.031 402.285 575.723 401.454 575.611 400.502H578.019C578.112 400.987 578.308 401.435 578.607 401.846C578.905 402.257 579.307 402.593 579.811 402.854C580.333 403.097 580.968 403.218 581.715 403.218C582.368 403.218 582.909 403.125 583.339 402.938C583.768 402.733 584.085 402.462 584.291 402.126C584.515 401.79 584.627 401.426 584.627 401.034C584.627 400.455 584.487 400.017 584.207 399.718C583.945 399.419 583.553 399.186 583.031 399.018C582.508 398.831 581.873 398.673 581.127 398.542C580.511 398.43 579.904 398.281 579.307 398.094C578.709 397.907 578.177 397.665 577.711 397.366C577.244 397.049 576.871 396.666 576.591 396.218C576.329 395.77 576.199 395.219 576.199 394.566C576.199 393.763 576.404 393.054 576.815 392.438C577.225 391.803 577.813 391.309 578.579 390.954C579.363 390.599 580.268 390.422 581.295 390.422C582.807 390.422 584.029 390.786 584.963 391.514C585.896 392.242 586.447 393.297 586.615 394.678H584.291C584.197 393.969 583.889 393.418 583.367 393.026C582.863 392.615 582.163 392.41 581.267 392.41C580.389 392.41 579.717 392.587 579.251 392.942C578.803 393.297 578.579 393.763 578.579 394.342C578.579 394.715 578.7 395.051 578.943 395.35C579.204 395.63 579.577 395.873 580.063 396.078C580.567 396.283 581.183 396.451 581.911 396.582C582.844 396.75 583.693 396.974 584.459 397.254C585.224 397.534 585.84 397.954 586.307 398.514C586.792 399.055 587.035 399.83 587.035 400.838C587.035 401.715 586.811 402.481 586.363 403.134C585.933 403.787 585.317 404.301 584.515 404.674C583.712 405.029 582.769 405.206 581.687 405.206Z" fill="white"/>
</svg>
